<?xml version="1.0" standalone="no"?>
<!DOCTYPE svg PUBLIC "-//W3C//DTD SVG 20010904//EN"
 "http://www.w3.org/TR/2001/REC-SVG-20010904/DTD/svg10.dtd">
<svg version="1.0" xmlns="http://www.w3.org/2000/svg"
 width="600.000000pt" height="600.000000pt" viewBox="0 0 600.000000 600.000000"
 preserveAspectRatio="xMidYMid meet">

<g transform="translate(0.000000,600.000000) scale(0.100000,-0.100000)"
fill="#000000" stroke="none">
<path d="M2790 5839 c-284 -20 -618 -92 -855 -186 -101 -40 -293 -132 -300
-144 -3 -4 5 -11 17 -15 13 -4 97 -42 187 -85 90 -44 168 -79 173 -79 4 0 8
67 8 149 l0 149 180 7 c100 4 183 5 186 3 2 -3 7 -68 11 -145 l6 -141 51 23
c92 42 389 177 461 210 110 50 105 50 160 -1 28 -25 46 -47 40 -50 -15 -7
-666 -350 -698 -368 l-27 -15 6 -253 c4 -139 8 -254 9 -256 1 -1 27 10 56 26
30 16 257 132 504 257 248 125 459 234 470 241 40 28 58 18 98 -57 22 -39 35
-75 30 -79 -10 -9 -118 -66 -438 -230 -270 -138 -434 -223 -612 -317 l-123
-65 0 -239 0 -240 98 52 c53 29 131 71 172 94 75 42 165 91 270 148 30 16 143
78 250 137 398 218 587 320 596 320 8 0 54 -133 54 -156 0 -8 -205 -123 -479
-270 -112 -59 -224 -120 -331 -179 -52 -29 -213 -116 -357 -194 l-263 -143 0
-240 0 -239 53 29 c28 16 122 67 207 112 85 46 176 96 203 112 26 15 49 28 52
28 3 0 303 161 535 288 77 42 153 83 235 127 33 18 103 55 156 84 53 28 99 51
102 51 4 0 7 -44 7 -98 l0 -98 -37 -21 c-42 -22 -841 -463 -998 -550 -55 -31
-129 -72 -165 -91 -161 -87 -336 -185 -343 -191 -4 -4 -6 -87 -5 -184 l3 -176
125 70 c135 77 175 99 290 164 41 23 163 92 270 152 107 60 319 180 470 265
308 174 340 191 346 186 4 -5 -51 -211 -66 -248 -6 -14 -41 -44 -83 -70 -39
-24 -119 -75 -177 -112 l-105 -68 1206 0 1205 0 -7 68 c-6 56 -18 155 -34 292
-3 24 -27 152 -41 215 -15 72 -78 289 -111 385 -197 575 -584 1064 -1101 1393
-245 156 -594 304 -877 371 -362 87 -595 108 -925 85z"/>
<path d="M1394 5371 c-38 -27 -120 -93 -183 -146 -108 -92 -113 -99 -95 -112
10 -8 89 -52 174 -97 259 -138 348 -185 392 -210 152 -83 327 -176 332 -176 3
0 6 116 6 259 l0 258 -142 73 c-79 40 -198 102 -265 137 -67 34 -128 63 -136
63 -8 0 -45 -22 -83 -49z"/>
<path d="M874 4928 c-40 -43 -146 -181 -178 -229 l-17 -26 213 -118 c117 -65
247 -137 288 -160 41 -24 100 -56 130 -72 30 -17 198 -110 373 -208 175 -97
320 -175 322 -173 1 1 6 105 10 229 l7 227 -169 87 c-92 48 -229 119 -303 158
-74 38 -157 82 -185 97 -79 43 -443 230 -448 230 -2 0 -22 -19 -43 -42z"/>
<path d="M537 4457 c-197 -296 -364 -771 -402 -1137 -2 -19 -11 -95 -19 -168
-20 -165 -22 -421 -3 -444 11 -14 92 -16 745 -21 403 -2 732 -3 730 -2 -2 1
-120 69 -263 150 -588 333 -665 379 -671 400 -4 11 -24 56 -45 99 -37 75 -48
112 -31 104 9 -4 290 -152 367 -193 33 -18 101 -54 150 -80 50 -26 122 -64
160 -85 39 -21 133 -70 210 -110 77 -40 154 -80 170 -90 17 -10 89 -48 160
-85 72 -37 149 -78 173 -92 24 -14 45 -23 48 -20 3 3 2 83 -3 178 l-8 172
-225 130 c-124 71 -360 207 -525 302 -268 153 -376 216 -725 418 l-95 55 -3
76 c-2 54 1 76 9 76 7 0 43 -18 81 -40 39 -22 72 -40 75 -40 3 0 44 -22 92
-49 47 -26 129 -71 181 -98 52 -28 115 -62 140 -75 25 -14 95 -51 155 -83 61
-32 115 -61 120 -65 6 -4 55 -31 110 -60 55 -29 125 -67 155 -83 30 -17 138
-75 240 -129 102 -55 191 -104 198 -110 7 -6 14 -9 15 -7 1 2 1 113 -1 246
l-4 242 -71 39 c-40 22 -112 61 -162 87 -49 26 -99 53 -110 60 -11 7 -56 32
-100 55 -44 24 -246 134 -450 245 -497 271 -523 285 -528 285 -3 0 -21 -24
-40 -53z"/>
<path d="M4716 2673 l-368 -3 88 -66 c123 -91 264 -241 313 -333 12 -21 12
-21 541 -21 l528 0 11 33 c29 90 42 163 48 275 l6 122 -399 -2 c-219 -2 -565
-4 -768 -5z"/>
<path d="M2750 2351 c-8 -5 -590 -10 -1292 -12 l-1276 -4 5 -30 c9 -53 74
-245 108 -321 l34 -74 885 0 c873 0 886 0 973 22 95 23 238 29 331 15 40 -7
52 -6 52 4 0 14 39 117 73 194 12 27 45 87 74 132 28 46 51 83 50 83 -1 0 -9
-4 -17 -9z"/>
<path d="M4900 1910 c0 -5 7 -35 15 -67 8 -31 15 -87 15 -123 0 -36 4 -69 8
-75 4 -6 68 -10 152 -11 132 -1 152 -4 220 -29 41 -15 106 -30 144 -34 68 -6
69 -6 91 24 45 61 155 284 155 315 0 6 -153 10 -400 10 -246 0 -400 -4 -400
-10z"/>
<path d="M1652 1620 c-543 -5 -564 -6 -578 -24 -20 -29 -21 -573 0 -601 10
-14 30 -20 80 -23 l66 -4 0 -54 0 -54 -64 0 c-99 0 -96 11 -96 -327 0 -270 1
-284 20 -303 20 -20 33 -20 1130 -20 1097 0 1110 0 1130 20 19 19 20 33 20
303 0 338 3 327 -96 327 l-64 0 0 55 0 55 60 0 c103 0 100 -10 100 324 0 264
-1 285 -19 307 l-19 24 -554 0 c-304 0 -806 -2 -1116 -5z m-242 -220 c0 -27
-3 -30 -30 -30 -27 0 -30 3 -30 30 0 27 3 30 30 30 27 0 30 -3 30 -30z m160 0
c0 -27 -3 -30 -30 -30 -27 0 -30 3 -30 30 0 27 3 30 30 30 27 0 30 -3 30 -30z
m165 0 c0 -20 -6 -26 -27 -28 -25 -3 -28 0 -28 28 0 28 3 31 28 28 21 -2 27
-8 27 -28z m165 0 c0 -27 -3 -30 -30 -30 -27 0 -30 3 -30 30 0 27 3 30 30 30
27 0 30 -3 30 -30z m160 0 c0 -27 -3 -30 -30 -30 -27 0 -30 3 -30 30 0 27 3
30 30 30 27 0 30 -3 30 -30z m1068 -56 c23 -16 29 -53 12 -84 -14 -26 -57 -34
-86 -15 -47 31 -21 115 36 115 9 0 26 -7 38 -16z m-1643 -49 c0 -25 -4 -30
-25 -30 -16 0 -26 6 -28 18 -6 30 6 49 30 45 18 -2 23 -9 23 -33z m160 0 c0
-25 -4 -30 -25 -30 -16 0 -26 6 -28 18 -6 30 6 49 30 45 18 -2 23 -9 23 -33z
m170 0 c0 -25 -4 -31 -26 -33 -29 -3 -44 18 -33 50 4 14 13 18 32 16 23 -2 27
-8 27 -33z m160 0 c0 -25 -4 -30 -25 -30 -16 0 -26 6 -28 18 -6 30 6 49 30 45
18 -2 23 -9 23 -33z m170 16 c10 -31 -5 -52 -34 -49 -26 3 -38 26 -27 54 8 21
53 18 61 -5z m-735 -121 c0 -27 -3 -30 -30 -30 -27 0 -30 3 -30 30 0 27 3 30
30 30 27 0 30 -3 30 -30z m160 0 c0 -27 -3 -30 -30 -30 -27 0 -30 3 -30 30 0
27 3 30 30 30 27 0 30 -3 30 -30z m165 0 c0 -20 -6 -26 -27 -28 -25 -3 -28 0
-28 28 0 28 3 31 28 28 21 -2 27 -8 27 -28z m165 0 c0 -27 -3 -30 -30 -30 -27
0 -30 3 -30 30 0 27 3 30 30 30 27 0 30 -3 30 -30z m160 -1 c0 -27 -3 -30 -27
-27 -22 2 -29 9 -31 31 -3 24 0 27 27 27 28 0 31 -3 31 -31z m-650 -549 c0
-27 -3 -30 -30 -30 -27 0 -30 3 -30 30 0 27 3 30 30 30 27 0 30 -3 30 -30z
m160 0 c0 -27 -3 -30 -30 -30 -27 0 -30 3 -30 30 0 27 3 30 30 30 27 0 30 -3
30 -30z m165 0 c0 -20 -6 -26 -27 -28 -25 -3 -28 0 -28 28 0 28 3 31 28 28 21
-2 27 -8 27 -28z m165 0 c0 -27 -3 -30 -30 -30 -27 0 -30 3 -30 30 0 27 3 30
30 30 27 0 30 -3 30 -30z m160 0 c0 -27 -3 -30 -30 -30 -25 0 -30 4 -30 23 0
30 7 37 37 37 19 0 23 -5 23 -30z m1075 -60 c24 -27 22 -70 -5 -92 -44 -36
-100 -10 -100 47 0 57 67 87 105 45z m-1647 -41 c3 -21 -2 -27 -22 -31 -30 -6
-36 -2 -36 27 0 28 9 37 35 33 13 -2 21 -12 23 -29z m162 3 c0 -36 -5 -40 -35
-34 -18 3 -25 11 -25 26 0 29 8 36 37 36 19 0 23 -5 23 -28z m168 -4 c3 -25 0
-28 -28 -28 -32 0 -47 18 -36 46 4 10 15 14 33 12 22 -2 29 -9 31 -30z m157
-3 c0 -25 -4 -29 -25 -29 -16 0 -26 6 -28 17 -6 30 6 49 30 45 18 -2 23 -9 23
-33z m170 5 c0 -21 -5 -26 -32 -28 -29 -3 -33 0 -33 21 0 31 9 39 40 35 19 -2
25 -9 25 -28z m-735 -110 c0 -27 -3 -30 -30 -30 -27 0 -30 3 -30 30 0 27 3 30
30 30 27 0 30 -3 30 -30z m160 0 c0 -27 -3 -30 -30 -30 -27 0 -30 3 -30 30 0
27 3 30 30 30 27 0 30 -3 30 -30z m168 3 c-2 -22 -9 -29 -30 -31 -25 -3 -28 0
-28 27 0 28 3 31 31 31 27 0 30 -3 27 -27z m162 -3 c0 -27 -3 -30 -30 -30 -27
0 -30 3 -30 30 0 27 3 30 30 30 27 0 30 -3 30 -30z m160 -1 c0 -27 -3 -30 -27
-27 -22 2 -29 9 -31 31 -3 24 0 27 27 27 28 0 31 -3 31 -31z"/>
<path d="M693 1543 c-90 -2 -163 -6 -163 -9 0 -23 83 -153 184 -287 49 -66 52
-68 86 -63 19 3 72 6 118 6 l82 0 0 180 0 180 -72 -2 c-40 -1 -146 -4 -235 -5z"/>
<path d="M3385 180 c-18 -20 -17 -20 38 -20 53 0 237 27 246 36 2 2 -56 4
-131 4 -122 0 -137 -2 -153 -20z"/>
</g>
</svg>
